# xmcd
#
# Track frame offsets:
# 150
# 15005
# 30955
# 45670
# 61628
# 74503
# 90545
# 101380
# 117453
# 130805
#
# Disc length: 1917 seconds
#
#
# Revision: 0
# Processed by: cddbd v1.5.2PL0 Copyright (c) Steve Scherf et al.
# Submitted via: FreeRIP 2.51 
#
DISCID=6f077b0a
DTITLE=Midnight Express - Burned By An Old Flame
DYEAR=1992
DGENRE=Country
TTITLE0=Could Have Been Me
TTITLE1=Skies Over Texas
TTITLE2=When Her Memory Comes Along
TTITLE3=Cowboy's Been Riding Too Long
TTITLE4=Kiss My Texas Goodbye
TTITLE5=Burned By An Old Flame
TTITLE6=A Country Song
TTITLE7=Outside Looking In
TTITLE8=Southern Music
TTITLE9=Train, Train
EXTD=
EXTT0=
EXTT1=
EXTT2=
EXTT3=
EXTT4=
EXTT5=
EXTT6=
EXTT7=
EXTT8=
EXTT9=
PLAYORDER=
